<?xml version="1.0" encoding="UTF-8"?><!DOCTYPE svg PUBLIC "-//W3C//DTD SVG 1.1//EN" "http://www.w3.org/Graphics/SVG/1.1/DTD/svg11.dtd"><svg xmlns="http://www.w3.org/2000/svg" xmlns:xlink="http://www.w3.org/1999/xlink" version="1.1" width="16" height="16" viewBox="0 0 16 16"><path fill="#444" d="M13 12h-2c-1 0-1.7-1.2-2.4-2.7-.3.7-.6 1.5-1 2.3C8.4 13 9.4 14 11 14h2v2l3-3-3-3v2z"/><path fill="#444" d="M5.4 6.6c.3-.7.6-1.5 1-2.2C5.6 3 4.5 2 3 2H0v2h3c1 0 1.7 1.2 2.4 2.6z"/><path fill="#444" d="M16 3l-3-3v2h-2C8.3 2 7.1 5 6 7.7 5.2 9.8 4.3 12 3 12H0v2h3c2.6 0 3.8-2.8 4.9-5.6C8.8 6.2 9.7 4 11 4h2v2l3-3z"/><metadata><rdf:RDF xmlns:rdf="http://www.w3.org/1999/02/22-rdf-syntax-ns#" xmlns:rdfs="http://www.w3.org/2000/01/rdf-schema#" xmlns:dc="http://purl.org/dc/elements/1.1/"><rdf:Description about="https://iconscout.com/legal#licenses" dc:title="random" dc:description="random" dc:publisher="Iconscout" dc:date="2017-09-19" dc:format="image/svg+xml" dc:language="en"><dc:creator><rdf:Bag><rdf:li>Vaadin Icons</rdf:li></rdf:Bag></dc:creator></rdf:Description></rdf:RDF></metadata></svg>